M48
INCH
T63C0.119
T62C0.038
T61C0.090
T60C0.028
T59C0.030
T58C0.081
T57C0.035
T56C0.020
%
T56
X0008600Y0007190
X0008950Y0006890
X0009350Y0006600
X0010680Y0006820
X0012610Y0004740
X0014250Y0012650
X0014500Y0009500
X0015100Y0014400
X0015200Y0016540
X0015250Y0012650
X0015630Y0016740
X0015700Y0015500
X0015750Y0009500
X0016750Y0008390
X0016900Y0016290
X0018000Y0010500
X0018750Y0011750
X0020300Y0012500
X0020650Y0011300
X0024200Y0013750
X0024650Y0011300
X0028200Y0013750
T60
X0006270Y0010310
X0006270Y0009330
X0007050Y0010310
X0007050Y0009330
T59
X0012900Y0003290
X0014900Y0003290
T57
X0008800Y0008770
X0008800Y0003990
X0011800Y0009850
X0013870Y0007760
X0013950Y0001440
X0014700Y0008490
X0014750Y0011800
X0014900Y0006790
X0015510Y0014870
X0015750Y0011800
X0016300Y0003390
X0017400Y0014000
X0017950Y0005350
X0018000Y0015600
X0019950Y0008730
X0020200Y0004500
X0020550Y0005250
X0023500Y0010500
X0023700Y0011750
X0025450Y0008750
X0025450Y0007750
T62
X0005800Y0005390
X0005800Y0004390
X0006800Y0005390
X0006800Y0004390
X0007800Y0005390
X0007800Y0004390
T58
X0027450Y0009750
X0027450Y0005750
T61
X0005200Y0012190
X0005200Y0007450
T63
X0001570Y0016140
X0001570Y0001570
X0028740Y0016140
X0028740Y0001570
M30
