G04 start of page 2 for group 0 idx 0 *
G04 Title: (unknown), top *
G04 Creator: pcb 1.99z *
G04 CreationDate: Mon 30 Sep 2013 07:10:50 PM GMT UTC *
G04 For: commonadmin *
G04 Format: Gerber/RS-274X *
G04 PCB-Dimensions: 600000 500000 *
G04 PCB-Coordinate-Origin: lower left *
%MOIN*%
%FSLAX25Y25*%
%LNTOP*%
%ADD36C,0.0380*%
%ADD35C,0.0905*%
%ADD34C,0.0280*%
%ADD33C,0.0300*%
%ADD32C,0.0810*%
%ADD31C,0.1190*%
%ADD30C,0.0350*%
%ADD29C,0.0200*%
%ADD28C,0.1600*%
%ADD27C,0.0360*%
%ADD26R,0.0200X0.0200*%
%ADD25R,0.0340X0.0340*%
%ADD24R,0.0295X0.0295*%
%ADD23R,0.0197X0.0197*%
%ADD22R,0.0160X0.0160*%
%ADD21C,0.0160*%
%ADD20R,0.0157X0.0157*%
%ADD19R,0.0512X0.0512*%
%ADD18C,0.0550*%
%ADD17C,0.1660*%
%ADD16C,0.1000*%
%ADD15C,0.0600*%
%ADD14C,0.0500*%
%ADD13C,0.0001*%
%ADD12C,0.0250*%
%ADD11C,0.0100*%
G54D11*X164000Y159600D02*Y152500D01*
X169000Y134900D02*Y162900D01*
X164000Y152500D02*X160100Y148600D01*
X155100Y152600D02*Y150600D01*
X157200Y148600D02*X157000D01*
X156900D02*X156800D01*
X155100Y148700D02*Y142100D01*
X142500Y126500D02*Y130000D01*
X152500Y126500D02*Y130000D01*
X147000Y134500D02*X142500Y130000D01*
X156300Y133800D02*X152500Y130000D01*
X158800Y133700D02*X162500Y130000D01*
X148900Y148600D02*X153400D01*
X151100Y138400D02*Y136600D01*
X149000Y134500D01*
X151000Y144000D02*X150100D01*
X153700Y140700D02*X155100Y142100D01*
X148600Y138400D02*Y141600D01*
X151000Y144000D01*
X149000Y134500D02*X147000D01*
X156300Y138400D02*Y133800D01*
X158800Y138400D02*Y133700D01*
X169000Y134900D02*X168900D01*
X168000Y134000D01*
X163000D01*
X161400Y138400D02*Y135600D01*
X163000Y134000D02*X161400Y135600D01*
X163000Y110000D02*X164500Y111500D01*
Y99690D02*X162190D01*
X157500Y95000D01*
X161400Y159600D02*Y154900D01*
X156100Y149600D02*X161400Y154900D01*
X158900Y156900D02*X157000Y155000D01*
X146100Y159600D02*Y157600D01*
X154100Y149600D01*
X151200Y159600D02*Y156500D01*
X155100Y152600D02*X151200Y156500D01*
X153700Y163700D02*Y159600D01*
X156300Y167400D02*Y159600D01*
X153700Y163700D02*X152000Y165400D01*
X152250Y165150D01*
X158900Y156900D02*Y163900D01*
X155000Y9900D02*X154000Y8900D01*
X160000Y21900D02*X157000Y24900D01*
X154000Y18900D02*X157000Y15900D01*
X160000Y18900D01*
X163000Y15900D01*
X156000Y13900D02*X155000Y12900D01*
Y9900D01*
X178000Y21900D02*X175000Y24900D01*
X172000Y21900D01*
X169000Y24900D01*
X178000Y21900D02*X181000Y24900D01*
X163000Y15900D02*X166000Y18900D01*
X169000Y15900D01*
X172000Y18900D01*
X175000Y15900D01*
X178000Y18900D01*
X181000Y15900D01*
X179000Y13900D01*
X156000D01*
X169000Y41900D02*Y63900D01*
X163370Y65049D02*X167851D01*
X169000Y63900D02*X167851Y65049D01*
X190000Y12500D02*X195000Y7500D01*
X200000Y12500D01*
X205000Y7500D01*
X220000Y16500D02*X215000Y21500D01*
X210000Y16500D01*
X205000Y21500D01*
X200000Y16500D01*
X195000Y21500D01*
X190000Y16500D01*
X188500D01*
X185000Y20000D01*
Y22500D01*
X190000Y27500D02*X185000Y22500D01*
X192500Y27500D02*X190000D01*
Y12500D02*X186600D01*
X179000Y4900D02*X186600Y12500D01*
X169000Y24900D02*X166000Y21900D01*
X163000Y24900D01*
X160000Y21900D01*
G54D12*X167000Y33900D02*Y35900D01*
G54D11*X181000Y24900D02*Y25900D01*
X179000Y27900D01*
Y33710D01*
X178810Y33900D01*
X177000D01*
X169000Y41900D01*
G54D12*X179500Y45500D02*X180000Y45000D01*
X179500Y57500D02*Y45500D01*
G54D11*X183010Y68810D02*X179500Y65300D01*
G54D12*X192500Y27500D02*Y44310D01*
X191810Y45000D01*
X209500D02*X217000Y52500D01*
G54D11*X216375Y56874D02*X217000Y57500D01*
X205058Y68810D02*X183010D01*
X205058D02*X205184Y68684D01*
X205485D02*X204794D01*
X211669Y62500D02*X205485Y68684D01*
G54D12*X196500Y50500D02*X202000Y45000D01*
X196500Y57000D02*Y50500D01*
X205500Y56859D02*X205485Y56874D01*
G54D11*X206111Y57500D02*X205485Y56874D01*
G54D12*X205500Y52500D02*Y56859D01*
G54D11*X205485Y56874D02*X216375D01*
X205000Y7500D02*X210000Y12500D01*
X215000Y7500D01*
X220000Y12500D01*
X225000Y7500D01*
X230000Y12500D01*
Y16500D02*X225000Y21500D01*
X220000Y16500D01*
X230000Y12500D02*X235000Y7500D01*
Y21500D02*X230000Y16500D01*
X235000Y7500D02*X240000Y12500D01*
Y16500D02*X235000Y21500D01*
X240000Y12500D02*Y16500D01*
G54D12*X293000Y35000D02*X297500Y39500D01*
X280000Y35000D02*X293000D01*
X272500Y27500D02*X280000Y35000D01*
X192500Y27500D02*X272500D01*
X209500Y45000D02*X191810D01*
G54D11*X260000Y87000D02*X261000Y88000D01*
X260000Y85000D02*Y87000D01*
X265000Y80000D02*X260000Y85000D01*
X254500Y87500D02*X262000Y95000D01*
X285000Y80000D02*X280000Y85000D01*
Y88000D02*X282000Y90000D01*
X290000Y85000D02*X285000Y80000D01*
X290000Y85000D02*X292500Y82500D01*
Y75000D01*
X289750Y72250D01*
X285000Y77000D01*
G54D12*X297500Y39500D02*Y140000D01*
G54D11*X280000Y72000D02*X285000Y77000D01*
X275000D02*X280000Y72000D01*
X270000D02*X275000Y77000D01*
X265000D02*X270000Y72000D01*
X260000D02*X265000Y77000D01*
X254500Y77500D02*X260000Y72000D01*
X270000Y85000D02*X265000Y80000D01*
X275000D02*X270000Y85000D01*
X280000D02*X275000Y80000D01*
X261000Y88000D02*X280000D01*
X243000D02*Y107000D01*
X246500Y113000D02*Y84190D01*
X237000Y92500D02*Y97500D01*
X243000Y107000D02*X242000Y108000D01*
X226500Y101000D02*Y117000D01*
X237000Y97500D02*X230000D01*
X222000D02*X226500Y93000D01*
X216500Y97500D02*X222000D01*
X216500D02*Y102500D01*
X254500Y105000D02*X246500Y113000D01*
X256190Y120810D02*X262000Y115000D01*
Y95000D01*
X282000Y90000D02*Y122500D01*
D03*
X254500Y87500D02*Y105000D01*
X242000Y120000D02*Y108000D01*
X188500Y104000D02*Y83500D01*
X192896Y108396D02*X188500Y104000D01*
X194500Y108396D02*X192896D01*
X194500Y94310D02*Y101310D01*
G54D12*X194422Y108474D02*X194500Y108396D01*
G54D11*X206690Y125000D02*X203000D01*
G54D12*X216500Y87500D02*X194776D01*
G54D11*X205500Y99310D02*Y96500D01*
X203500Y101310D02*X205500Y99310D01*
X194500Y101310D02*X203500D01*
X209500Y92500D02*X205500Y96500D01*
X216500Y92500D02*X209500D01*
G54D12*X194776Y87500D02*X194500Y87224D01*
G54D11*X196175Y76874D02*X187626D01*
X180000Y84500D02*X187626Y76874D01*
X180000Y90000D02*Y105000D01*
Y84500D02*Y90500D01*
X188500Y83500D02*X189500Y82500D01*
X219500D01*
X230000Y97500D02*X226500Y101000D01*
Y84000D02*X230500Y80000D01*
X226500Y93000D02*Y84000D01*
X242500Y87500D02*X243000Y88000D01*
X237000Y87500D02*X242500D01*
X246500Y84190D02*X242310Y80000D01*
G54D12*X242000Y72500D02*X237500D01*
X244500Y70000D02*X242000Y72500D01*
X244500Y55000D02*Y70000D01*
X242000Y52500D02*X244500Y55000D01*
X217000Y52500D02*X242000D01*
G54D11*X234500Y67500D02*X220000Y82000D01*
X237500Y67500D02*X234500D01*
X237500D02*Y62500D01*
X219500Y82500D02*X220250Y81750D01*
X224859Y62500D02*X229859Y57500D01*
X237500D02*X229859D01*
X211669Y62500D02*X224859D01*
X217000Y72500D02*Y67500D01*
X212626Y76874D02*X217000Y72500D01*
X207985Y76874D02*X212626D01*
X156100Y147600D02*X161100Y142600D01*
X157100Y148600D02*X160100D01*
X162500Y167500D02*X158900Y163900D01*
X163900Y141800D02*Y138400D01*
Y141800D02*X163100Y142600D01*
X161100D02*X163100D01*
X146000Y145700D02*X148900Y148600D01*
X146000Y144500D02*Y138400D01*
X153700Y140700D02*Y138400D01*
X146000Y145700D02*Y144400D01*
G54D12*X174000Y140000D02*X180000D01*
X195000Y142500D02*X192500Y140000D01*
X174000D01*
X195000Y167500D02*Y142500D01*
G54D11*Y167500D02*X187500D01*
G54D12*X272500D02*X267500Y172500D01*
X200000D01*
X195000Y167500D01*
G54D11*X175690D02*X162500D01*
G54D12*X272500Y152500D02*Y167500D01*
X280000Y145000D02*X272500Y152500D01*
X292500Y145000D02*X280000D01*
X297500Y140000D02*X292500Y145000D01*
G54D11*X226500Y117000D02*X218500Y125000D01*
X248810Y122500D02*Y125310D01*
X242000Y127500D02*X237000Y122500D01*
X242000Y137500D02*Y127500D01*
X248810Y122500D02*X244500D01*
X242000Y120000D01*
X152500Y126500D02*X149500Y123500D01*
X145500D01*
X145000Y123000D01*
X187500Y117500D02*X175000D01*
G54D12*X162310Y118000D02*X152690D01*
X152500Y118190D01*
X152310Y118000D02*X152500Y118190D01*
G54D11*X175000Y117500D02*X162500Y130000D01*
G54D12*X162310Y118000D02*X162500Y118190D01*
G54D11*X248810Y125310D02*X255000Y131500D01*
X258000D02*X255000D01*
X266000D02*X257810D01*
X269000Y128500D02*X266000Y131500D01*
X256190Y122500D02*Y119190D01*
Y122500D02*Y120810D01*
X274914Y126414D02*X276500Y128000D01*
X274914Y122500D02*Y126414D01*
X282000Y133500D02*X276000Y127500D01*
X282000Y137500D02*Y133500D01*
X269000Y122500D02*Y128500D01*
X274914Y122500D02*X268000D01*
Y120500D01*
X274914Y122500D02*Y123414D01*
X94000Y102900D02*X107000Y89900D01*
X102000Y94900D01*
X123000Y102270D02*X122937Y102333D01*
X125000Y107500D02*X117500D01*
X122937Y102333D02*Y98963D01*
X123500Y123000D02*X122500Y122000D01*
X124500Y113000D02*X122500Y115000D01*
X123914Y123500D02*X122500Y122086D01*
X123414Y123000D02*X122500Y122086D01*
G54D12*X112500Y112500D02*Y118190D01*
G54D11*X117500Y107500D02*X112500Y112500D01*
X120000Y110000D02*X117500Y112500D01*
Y125000D01*
X112500Y130000D01*
G54D12*X118000Y98500D02*X114690D01*
X112500Y100690D01*
G54D11*X97000Y94900D02*X87086D01*
G54D12*X94000Y87710D02*X88000D01*
G54D11*X94000Y75900D02*Y78900D01*
G54D12*X114000Y90247D02*X118653D01*
X119000D02*X126086D01*
G54D11*X122937Y98963D02*X125000Y96900D01*
X127000D01*
X109803Y87097D02*X106000Y90900D01*
X107952Y83948D02*X97000Y94900D01*
X104252Y77648D02*X100000Y81900D01*
X94102Y87608D02*X94000Y87710D01*
X99190D01*
X106102Y80798D01*
X94000Y78900D02*X97000Y81900D01*
X100000D01*
G54D12*X52000Y121900D02*X32000D01*
G54D11*X35000Y97900D02*X32000Y100900D01*
X35000Y103900D01*
X32000Y106900D01*
X35000Y109900D01*
X38000D01*
X40000Y107900D02*Y94900D01*
G54D12*X32000Y121900D02*X16000Y105900D01*
G54D11*X25000Y93900D02*X16000D01*
X25000D02*Y107900D01*
X27000Y109900D01*
X30000Y106900D01*
X27000Y103900D01*
X30000Y100900D01*
X27000Y97900D01*
X30000Y94900D01*
X27000Y91900D01*
X35000D02*X32000Y94900D01*
X35000Y97900D01*
G54D12*X66882Y127900D02*Y114782D01*
X70500Y115400D02*X77000Y121900D01*
Y130900D01*
X72000Y135900D01*
Y127900D02*Y128900D01*
X66882Y135900D02*Y134018D01*
X72000Y128900D02*X66882Y134018D01*
Y135900D02*X66000D01*
X52000Y121900D01*
G54D11*X38000Y109900D02*X40000Y107900D01*
X41600Y93300D02*X40000Y94900D01*
G54D12*X70500Y93300D02*Y81400D01*
G54D11*X62700Y93300D02*X41600D01*
G54D12*X62700D02*Y83200D01*
Y103100D02*Y110600D01*
X70500Y103100D02*Y115400D01*
X66882Y114782D02*X62700Y110600D01*
G54D11*Y103100D02*Y101200D01*
X66000Y97900D01*
X77000D01*
X80000Y94900D01*
X70500Y103100D02*X79800D01*
X80000Y102900D01*
X87086D02*X94000D01*
G54D12*X70500Y81400D02*X90000Y61900D01*
X88000Y57900D02*X62700Y83200D01*
G54D11*X27000Y91900D02*X30000Y88900D01*
X32000D02*X35000Y91900D01*
X30000Y88900D02*X27000Y85900D01*
X30000Y82900D01*
X32000D01*
X35000Y85900D01*
X32000Y88900D01*
X27810Y68900D02*Y69110D01*
G54D12*X16000Y105900D02*Y62900D01*
X18000Y60900D01*
X31000D01*
G54D11*X27810Y69110D02*X52000Y93300D01*
G54D12*X31000Y60900D02*X42500Y72400D01*
X44600Y74500D02*X42250Y72150D01*
X52000Y74500D02*X44600D01*
G54D11*X126086Y52963D02*Y47396D01*
X110225Y43125D02*X119000Y51900D01*
X122000Y57900D02*X120000Y55900D01*
Y52900D01*
X118500Y51400D01*
G54D12*X132385Y52963D02*Y56285D01*
X136000Y59900D01*
X129236Y52963D02*Y58136D01*
X101200Y45200D02*X107500Y51500D01*
X110600D01*
G54D11*X115000Y21900D02*Y14900D01*
X121000Y8900D01*
X118000Y4900D02*X111000Y11900D01*
Y18900D01*
X121000Y8900D02*X154000D01*
X179000Y4900D02*X118000D01*
G54D12*X135000Y17900D02*X135960D01*
X138525Y14375D02*X135000Y17900D01*
X138525Y14375D02*X140475D01*
X144000Y17900D01*
G54D11*X135000Y24986D02*X129000Y30986D01*
Y35900D01*
X154000Y21900D02*Y18900D01*
X115000Y21900D02*X104000Y32900D01*
Y41010D01*
X99810Y45200D02*Y30090D01*
X111000Y18900D02*X99810Y30090D01*
X149000Y29986D02*X144000Y24986D01*
X149000Y29986D02*Y39710D01*
X157000Y24900D02*X154000Y21900D01*
X135535Y52963D02*Y42435D01*
X138685Y52963D02*Y50025D01*
X149000Y39710D02*X138685Y50025D01*
G54D12*X163000Y33900D02*Y52900D01*
X149000Y66900D02*X163000Y52900D01*
X135433Y80900D02*X142000Y74333D01*
G54D11*X138685Y71585D02*Y78585D01*
G54D12*X138717Y77617D02*X126717D01*
G54D11*X145000Y78900D02*X127000Y96900D01*
G54D12*X126086Y90247D02*X135217Y81117D01*
X142000Y70900D02*Y74333D01*
G54D11*X147000Y78900D02*X145000D01*
G54D12*X141000Y59900D02*X149000Y67900D01*
Y66900D01*
G54D11*X160851Y65049D02*X147000Y78900D01*
G54D12*X163370Y61900D02*X159000D01*
X149000Y67900D02*X153000D01*
X159000Y61900D02*X153000Y67900D01*
G54D11*X163370Y83947D02*X167453D01*
X167500Y83900D01*
G54D12*X154433Y102333D02*Y98333D01*
X147000Y90900D01*
Y84900D01*
G54D11*X151284Y102333D02*Y98784D01*
X147500Y95000D01*
X145000D01*
G54D12*X88000Y45200D02*Y55200D01*
Y54200D02*Y57900D01*
X90000Y61900D02*X95000D01*
X90000Y33900D02*X82000D01*
X78000Y37900D01*
Y43900D01*
G54D11*Y43000D01*
G54D12*X95000Y61900D02*X99810Y57090D01*
G54D11*X99000Y66000D02*X103100Y61900D01*
G54D12*X99810Y45390D02*Y57090D01*
Y43900D02*Y43710D01*
X90000Y33900D01*
G54D11*X104000Y41010D02*X99810Y45200D01*
G54D12*X101200D01*
G54D11*X93500Y66000D02*X99000D01*
X89500Y68900D02*X101100D01*
X104950Y65050D02*X101100Y68900D01*
X86000Y71900D02*X103100D01*
X114000Y87097D02*X109803D01*
X114000Y83948D02*X107952D01*
X114000Y80798D02*X106102D01*
X114000Y77648D02*X104252D01*
G54D12*X123599Y74499D02*X126717Y77617D01*
G54D11*X138685Y71585D02*X125000Y57900D01*
X122000D01*
G54D12*X138685Y76585D02*X124000Y61900D01*
X121000D01*
X126717Y77617D02*X126500Y77400D01*
X129236Y58136D02*X142000Y70900D01*
X136000Y59900D02*X141000D01*
G54D11*X129000Y35900D02*X135535Y42435D01*
X126086Y47396D02*X121815Y43125D01*
X110005D02*X110225D01*
G54D12*X114000Y74499D02*X123599D01*
G54D11*X114000Y61900D02*X103100D01*
X114000Y65050D02*X104950D01*
X114000Y68200D02*X106800D01*
X103100Y71900D02*X106800Y68200D01*
G54D12*X110600Y51500D02*X121000Y61900D01*
G54D11*X132386Y102333D02*Y108286D01*
X129237Y102333D02*Y108263D01*
X132386Y108614D02*Y110614D01*
X126087Y102333D02*Y106413D01*
X125000Y107500D01*
X127500Y110000D02*X129237Y108263D01*
X127500Y110000D02*X120000D01*
X132386Y110614D02*X130000Y113000D01*
X124500D01*
X145000Y123000D02*X123414D01*
G54D12*X142690Y118000D02*X142500Y118190D01*
X142690Y118000D02*X152310D01*
G54D11*X135536Y102333D02*Y109464D01*
X135000Y110000D01*
X138148D02*X163000D01*
G54D13*G36*
X244000Y115500D02*Y110500D01*
X249000D01*
Y115500D01*
X244000D01*
G37*
G54D14*X206500Y113000D03*
G54D13*G36*
X251500Y80500D02*Y74500D01*
X257500D01*
Y80500D01*
X251500D01*
G37*
G54D15*X254500Y87500D03*
G54D16*X274500Y97500D03*
Y57500D03*
G54D13*G36*
X279500Y140000D02*Y135000D01*
X284500D01*
Y140000D01*
X279500D01*
G37*
G54D14*X242000Y137500D03*
G54D13*G36*
X146250Y35650D02*Y30150D01*
X151750D01*
Y35650D01*
X146250D01*
G37*
G54D15*X62700Y93300D03*
Y103100D03*
X70500D03*
Y93300D03*
G54D17*X52000Y74500D03*
Y121900D03*
G54D18*X129000Y32900D03*
G54D13*G36*
X75000Y56900D02*Y50900D01*
X81000D01*
Y56900D01*
X75000D01*
G37*
G54D15*X78000Y43900D03*
X68000D03*
X58000D03*
X68000Y53900D03*
X58000D03*
G54D19*X110005Y44306D02*Y41944D01*
X121815Y44306D02*Y41944D01*
X134607Y17900D02*X135393D01*
X134607Y24986D02*X135393D01*
X135000Y43081D02*Y40719D01*
G54D20*X122937Y55176D02*Y50750D01*
X126086Y55176D02*Y50750D01*
X129236Y55176D02*Y50750D01*
X132385Y55176D02*Y50750D01*
X135535Y55176D02*Y50750D01*
X138685Y55176D02*Y50750D01*
G54D19*X167000Y35081D02*Y32719D01*
X178810Y35081D02*Y32719D01*
X143607Y17900D02*X144393D01*
X143607Y24986D02*X144393D01*
X146810Y43081D02*Y40719D01*
G54D20*X141834Y55176D02*Y50750D01*
X144984Y55176D02*Y50750D01*
X148133Y55176D02*Y50750D01*
X151283Y55176D02*Y50750D01*
X154433Y55176D02*Y50750D01*
G54D19*X180000Y46181D02*Y43819D01*
X191810Y46181D02*Y43819D01*
G54D21*X146000Y139500D02*Y137300D01*
G54D22*X148600Y139500D02*Y137300D01*
X151100Y139500D02*Y137300D01*
X153700Y139500D02*Y137300D01*
G54D19*X151319Y118190D02*X153681D01*
X151319Y130000D02*X153681D01*
G54D22*X156300Y139500D02*Y137300D01*
X158800Y139500D02*Y137300D01*
X161400Y139500D02*Y137300D01*
X163900Y139500D02*Y137300D01*
G54D19*X161319Y118190D02*X163681D01*
X161319Y130000D02*X163681D01*
X163319Y111500D02*X165681D01*
G54D20*X154433Y104546D02*Y100120D01*
X151284Y104546D02*Y100120D01*
X148134Y104546D02*Y100120D01*
G54D22*X164000Y160700D02*Y158500D01*
X161400Y160700D02*Y158500D01*
X158900Y160700D02*Y158500D01*
X156300Y160700D02*Y158500D01*
X153700Y160700D02*Y158500D01*
X151200Y160700D02*Y158500D01*
X148600Y160700D02*Y158500D01*
X146100Y160700D02*Y158500D01*
G54D19*X178819Y151810D02*X181181D01*
X178819Y140000D02*X181181D01*
X187500Y168681D02*Y166319D01*
X175690Y168681D02*Y166319D01*
G54D23*X135000Y110393D02*Y109607D01*
X138148Y110393D02*Y109607D01*
G54D19*X141319Y118190D02*X143681D01*
X141319Y130000D02*X143681D01*
G54D20*X144985Y104546D02*Y100120D01*
X141835Y104546D02*Y100120D01*
X138685Y104546D02*Y100120D01*
X135536Y104546D02*Y100120D01*
X132386Y104546D02*Y100120D01*
X129237Y104546D02*Y100120D01*
X126087Y104546D02*Y100120D01*
G54D24*X72000Y128392D02*Y127408D01*
X66882Y128392D02*Y127408D01*
Y136392D02*Y135408D01*
X72000Y136392D02*Y135408D01*
G54D19*X88000Y55381D02*Y53019D01*
X99810Y55381D02*Y53019D01*
X88000Y46381D02*Y44019D01*
X99810Y46381D02*Y44019D01*
X92819Y87710D02*X95181D01*
X92819Y75900D02*X95181D01*
X80000Y95293D02*Y94507D01*
X87086Y95293D02*Y94507D01*
X80000Y103293D02*Y102507D01*
X87086Y103293D02*Y102507D01*
G54D20*X111787Y90247D02*X116213D01*
X111787Y87097D02*X116213D01*
X111787Y83948D02*X116213D01*
X111787Y80798D02*X116213D01*
X111787Y77648D02*X116213D01*
X111787Y74499D02*X116213D01*
X111787Y71349D02*X116213D01*
X111787Y68200D02*X116213D01*
X111787Y65050D02*X116213D01*
X111787Y61900D02*X116213D01*
G54D19*X16000Y70081D02*Y67719D01*
X27810Y70081D02*Y67719D01*
X122107Y115000D02*X122893D01*
X122107Y122086D02*X122893D01*
X111319Y118190D02*X113681D01*
X111319Y130000D02*X113681D01*
X111319Y100690D02*X113681D01*
G54D20*X111787Y93396D02*X116213D01*
G54D19*X111319Y112500D02*X113681D01*
G54D20*X122937Y104546D02*Y100120D01*
X161157Y61900D02*X165583D01*
X161157Y65049D02*X165583D01*
X161157Y68199D02*X165583D01*
X161157Y83947D02*X165583D01*
X161157Y87096D02*X165583D01*
X161157Y90246D02*X165583D01*
X161157Y93396D02*X165583D01*
G54D19*X163319Y99690D02*X165681D01*
G54D20*X161157Y71348D02*X165583D01*
X161157Y74498D02*X165583D01*
X161157Y77648D02*X165583D01*
X161157Y80797D02*X165583D01*
G54D19*X207985Y78055D02*Y75693D01*
X196175Y78055D02*Y75693D01*
X204304Y56874D02*X206666D01*
X204304Y68684D02*X206666D01*
X195319Y68810D02*X197681D01*
X195319Y57000D02*X197681D01*
X204319Y87500D02*X206681D01*
X194107Y87224D02*X194893D01*
X194107Y94310D02*X194893D01*
G54D25*X179200Y65300D02*X179800D01*
X179200Y57500D02*X179800D01*
X187400Y61400D02*X188000D01*
G54D19*X204319Y99310D02*X206681D01*
X194107Y101310D02*X194893D01*
X194107Y108396D02*X194893D01*
G54D26*X213250Y102500D02*X219750D01*
X213250Y97500D02*X219750D01*
G54D19*X218500Y126181D02*Y123819D01*
X206690Y126181D02*Y123819D01*
G54D26*X213250Y92500D02*X219750D01*
X233750D02*X240250D01*
X233750Y97500D02*X240250D01*
X233750Y102500D02*X240250D01*
G54D19*X237000Y123681D02*Y121319D01*
X248810Y123681D02*Y121319D01*
X256189Y123681D02*Y121319D01*
X267999Y123681D02*Y121319D01*
X274914Y122893D02*Y122107D01*
X282000Y122893D02*Y122107D01*
X230500Y81181D02*Y78819D01*
G54D26*X213750Y72500D02*X220250D01*
G54D19*X242310Y81181D02*Y78819D01*
G54D26*X213250Y87500D02*X219750D01*
X233750D02*X240250D01*
X213750Y67500D02*X220250D01*
X213750Y62500D02*X220250D01*
X213750Y57500D02*X220250D01*
X234250D02*X240750D01*
X234250Y62500D02*X240750D01*
X234250Y67500D02*X240750D01*
X234250Y72500D02*X240750D01*
G54D27*X156300Y167400D03*
G54D15*X155100Y148700D03*
G54D27*X157000Y155000D03*
G54D15*X180000Y156000D03*
X202000Y45000D03*
X179500Y53500D03*
X205500Y52500D03*
G54D27*X157500Y95000D03*
G54D15*X174000Y140000D03*
G54D27*X180000Y105000D03*
G54D15*X157500Y118000D03*
X88000Y87710D03*
G54D27*X86000Y71900D03*
X93500Y66000D03*
X106800Y68200D03*
G54D15*X118000Y98500D03*
G54D27*X89500Y68900D03*
G54D28*X15748Y15748D03*
G54D15*X88000Y39900D03*
G54D27*X152000Y165400D03*
G54D28*X15748Y161417D03*
G54D27*X169000Y162900D03*
G54D28*X287402Y161417D03*
Y15748D03*
G54D15*X199500Y87324D03*
G54D27*X203000Y125000D03*
G54D15*X237000Y117500D03*
X235000Y105000D03*
G54D27*X187500Y117500D03*
G54D15*X138685Y77648D03*
X147000Y84900D03*
X149000Y67900D03*
G54D27*X167500Y83900D03*
X145000Y95000D03*
X152500Y126500D03*
X142500D03*
X151000Y144000D03*
G54D15*X147500Y118000D03*
G54D27*X126086Y47396D03*
G54D15*X163000Y33900D03*
X139485Y14375D03*
G54D29*G54D30*G54D29*G54D30*G54D29*G54D30*G54D29*G54D30*G54D29*G54D30*G54D29*G54D31*G54D30*G54D29*G54D31*G54D29*G54D31*G54D30*G54D29*G54D30*G54D29*G54D30*G54D29*G54D30*G54D29*G54D30*G54D29*G54D30*G54D32*G54D29*G54D33*G54D34*G54D35*G54D33*G54D36*M02*
