G04 start of page 7 for group -4062 idx -4062 *
G04 Title: (unknown), soldermask *
G04 Creator: pcb 1.99z *
G04 CreationDate: Mon 30 Sep 2013 07:10:50 PM GMT UTC *
G04 For: commonadmin *
G04 Format: Gerber/RS-274X *
G04 PCB-Dimensions: 600000 500000 *
G04 PCB-Coordinate-Origin: lower left *
%MOIN*%
%FSLAX25Y25*%
%LNBOTTOMMASK*%
%ADD85C,0.0610*%
%ADD84C,0.1740*%
%ADD83C,0.0680*%
%ADD82C,0.1060*%
%ADD81C,0.0660*%
%ADD80C,0.0560*%
%ADD79C,0.0001*%
G54D79*G36*
X243700Y115800D02*Y110200D01*
X249300D01*
Y115800D01*
X243700D01*
G37*
G54D80*X206500Y113000D03*
G54D79*G36*
X251200Y80800D02*Y74200D01*
X257800D01*
Y80800D01*
X251200D01*
G37*
G54D81*X254500Y87500D03*
G54D82*X274500Y97500D03*
Y57500D03*
G54D79*G36*
X279200Y140300D02*Y134700D01*
X284800D01*
Y140300D01*
X279200D01*
G37*
G54D80*X242000Y137500D03*
G54D79*G36*
X145950Y35950D02*Y29850D01*
X152050D01*
Y35950D01*
X145950D01*
G37*
G54D83*X62700Y93300D03*
Y103100D03*
X70500D03*
Y93300D03*
G54D84*X52000Y74500D03*
Y121900D03*
G54D85*X129000Y32900D03*
G54D79*G36*
X74700Y57200D02*Y50600D01*
X81300D01*
Y57200D01*
X74700D01*
G37*
G54D81*X78000Y43900D03*
X68000D03*
X58000D03*
X68000Y53900D03*
X58000D03*
M02*
