G04 start of page 3 for group 1 idx 1 *
G04 Title: (unknown), bottom *
G04 Creator: pcb 1.99z *
G04 CreationDate: Mon 30 Sep 2013 06:03:38 PM GMT UTC *
G04 For: commonadmin *
G04 Format: Gerber/RS-274X *
G04 PCB-Dimensions: 600000 500000 *
G04 PCB-Coordinate-Origin: lower left *
%MOIN*%
%FSLAX25Y25*%
%LNBOTTOM*%
%ADD54C,0.0380*%
%ADD53C,0.0905*%
%ADD52C,0.0280*%
%ADD51C,0.0300*%
%ADD50C,0.0810*%
%ADD49C,0.1190*%
%ADD48C,0.0200*%
%ADD47C,0.0350*%
%ADD46C,0.1600*%
%ADD45C,0.0360*%
%ADD44C,0.0550*%
%ADD43C,0.1660*%
%ADD42C,0.1000*%
%ADD41C,0.0600*%
%ADD40C,0.0500*%
%ADD39C,0.0250*%
%ADD38C,0.0100*%
%ADD37C,0.0001*%
G54D37*G36*
X142836Y104000D02*X165000D01*
Y85161D01*
X164958Y85081D01*
X164930Y85007D01*
X164914Y84929D01*
X164911Y84850D01*
X164920Y84772D01*
X164941Y84696D01*
X164974Y84624D01*
X165000Y84585D01*
Y83212D01*
X164976Y83175D01*
X164943Y83103D01*
X164922Y83028D01*
X164913Y82949D01*
X164916Y82871D01*
X164932Y82794D01*
X164961Y82721D01*
X165000Y82642D01*
Y51000D01*
X142836D01*
Y77554D01*
X146249Y80967D01*
X146372Y80937D01*
X147000Y80888D01*
X147628Y80937D01*
X148240Y81084D01*
X148822Y81325D01*
X149358Y81654D01*
X149837Y82063D01*
X150246Y82542D01*
X150575Y83078D01*
X150816Y83660D01*
X150963Y84272D01*
X151000Y84900D01*
X150963Y85528D01*
X150816Y86140D01*
X150575Y86722D01*
X150246Y87258D01*
X149837Y87737D01*
X149358Y88146D01*
X148822Y88475D01*
X148240Y88716D01*
X147628Y88863D01*
X147000Y88912D01*
X146372Y88863D01*
X145760Y88716D01*
X145178Y88475D01*
X144642Y88146D01*
X144163Y87737D01*
X143754Y87258D01*
X143425Y86722D01*
X143184Y86140D01*
X143037Y85528D01*
X142988Y84900D01*
X143037Y84272D01*
X143067Y84149D01*
X142836Y83918D01*
Y104000D01*
G37*
G36*
X112000D02*X142836D01*
Y83918D01*
X140248Y81330D01*
X139925Y81464D01*
X139313Y81611D01*
X138685Y81660D01*
X138057Y81611D01*
X137445Y81464D01*
X136863Y81223D01*
X136327Y80894D01*
X135848Y80485D01*
X135439Y80006D01*
X135110Y79470D01*
X134869Y78888D01*
X134722Y78276D01*
X134673Y77648D01*
X134722Y77020D01*
X134869Y76408D01*
X135110Y75826D01*
X135439Y75290D01*
X135848Y74811D01*
X136327Y74402D01*
X136863Y74073D01*
X137445Y73832D01*
X138057Y73685D01*
X138685Y73636D01*
X139313Y73685D01*
X139925Y73832D01*
X140507Y74073D01*
X141043Y74402D01*
X141522Y74811D01*
X141931Y75290D01*
X142260Y75826D01*
X142501Y76408D01*
X142648Y77020D01*
X142670Y77388D01*
X142836Y77554D01*
Y51000D01*
X112000D01*
Y104000D01*
G37*
G36*
X163096Y163000D02*X166199D01*
X166191Y162900D01*
X166226Y162461D01*
X166329Y162032D01*
X166497Y161625D01*
X166728Y161249D01*
X167014Y160914D01*
X167349Y160628D01*
X167725Y160397D01*
X168132Y160229D01*
X168561Y160126D01*
X169000Y160091D01*
X169439Y160126D01*
X169868Y160229D01*
X170275Y160397D01*
X170651Y160628D01*
X170986Y160914D01*
X171272Y161249D01*
X171503Y161625D01*
X171671Y162032D01*
X171774Y162461D01*
X171800Y162900D01*
X171794Y163000D01*
X184000D01*
Y158250D01*
X180000D01*
X179647Y158229D01*
X179303Y158146D01*
X178975Y158011D01*
X178673Y157826D01*
X178404Y157596D01*
X178174Y157327D01*
X177989Y157025D01*
X177854Y156697D01*
X177771Y156353D01*
X177743Y156000D01*
X177771Y155647D01*
X177854Y155303D01*
X177989Y154975D01*
X178174Y154673D01*
X178404Y154404D01*
X178673Y154174D01*
X178975Y153989D01*
X179303Y153854D01*
X179647Y153771D01*
X180000Y153750D01*
X184000D01*
Y134000D01*
X178121D01*
X177302Y134819D01*
X177264Y134864D01*
X177084Y135017D01*
X176883Y135141D01*
X176665Y135231D01*
X176435Y135286D01*
X176200Y135305D01*
X176141Y135300D01*
X163096D01*
Y141250D01*
X163568D01*
X166347Y138471D01*
X166404Y138404D01*
X166673Y138174D01*
X166673Y138174D01*
X166861Y138059D01*
X166975Y137989D01*
X167303Y137854D01*
X167647Y137771D01*
X167647D01*
X168000Y137743D01*
X168088Y137750D01*
X170688D01*
X170754Y137642D01*
X171163Y137163D01*
X171642Y136754D01*
X172178Y136425D01*
X172760Y136184D01*
X173372Y136037D01*
X174000Y135988D01*
X174628Y136037D01*
X175240Y136184D01*
X175822Y136425D01*
X176358Y136754D01*
X176837Y137163D01*
X177246Y137642D01*
X177575Y138178D01*
X177816Y138760D01*
X177963Y139372D01*
X178000Y140000D01*
X177963Y140628D01*
X177816Y141240D01*
X177575Y141822D01*
X177246Y142358D01*
X176837Y142837D01*
X176358Y143246D01*
X175822Y143575D01*
X175240Y143816D01*
X174628Y143963D01*
X174000Y144012D01*
X173372Y143963D01*
X172760Y143816D01*
X172178Y143575D01*
X171642Y143246D01*
X171163Y142837D01*
X170754Y142358D01*
X170688Y142250D01*
X168932D01*
X166153Y145029D01*
X166096Y145096D01*
X165827Y145326D01*
X165827Y145326D01*
X165712Y145396D01*
X165525Y145511D01*
X165293Y145607D01*
X165197Y145646D01*
X164853Y145729D01*
X164500Y145757D01*
X164412Y145750D01*
X163096D01*
Y163000D01*
G37*
G36*
X143000D02*X150558D01*
X150725Y162897D01*
X151132Y162729D01*
X151561Y162626D01*
X152000Y162591D01*
X152439Y162626D01*
X152868Y162729D01*
X153275Y162897D01*
X153442Y163000D01*
X163096D01*
Y145750D01*
X153188D01*
X152986Y145986D01*
X152651Y146272D01*
X152275Y146503D01*
X151868Y146671D01*
X151439Y146774D01*
X151000Y146809D01*
X150561Y146774D01*
X150132Y146671D01*
X149725Y146503D01*
X149349Y146272D01*
X149014Y145986D01*
X148728Y145651D01*
X148497Y145275D01*
X148329Y144868D01*
X148226Y144439D01*
X148191Y144000D01*
X148226Y143561D01*
X148329Y143132D01*
X148497Y142725D01*
X148728Y142349D01*
X149014Y142014D01*
X149349Y141728D01*
X149725Y141497D01*
X150132Y141329D01*
X150561Y141226D01*
X151000Y141191D01*
X151439Y141226D01*
X151516Y141244D01*
X151588Y141250D01*
X163096D01*
Y135300D01*
X156359D01*
X156300Y135305D01*
X156065Y135286D01*
X155835Y135231D01*
X155617Y135141D01*
X155416Y135017D01*
X155415Y135017D01*
X155236Y134864D01*
X155198Y134819D01*
X154379Y134000D01*
X143000D01*
Y134879D01*
X145019Y136898D01*
X145064Y136936D01*
X145217Y137115D01*
X145217Y137116D01*
X145341Y137317D01*
X145431Y137535D01*
X145486Y137765D01*
X145505Y138000D01*
X145500Y138059D01*
Y145379D01*
X153621Y153500D01*
X154635D01*
X154728Y153349D01*
X155014Y153014D01*
X155349Y152728D01*
X155725Y152497D01*
X156132Y152329D01*
X156561Y152226D01*
X157000Y152191D01*
X157439Y152226D01*
X157868Y152329D01*
X158275Y152497D01*
X158651Y152728D01*
X158986Y153014D01*
X159272Y153349D01*
X159503Y153725D01*
X159671Y154132D01*
X159774Y154561D01*
X159800Y155000D01*
X159774Y155439D01*
X159671Y155868D01*
X159503Y156275D01*
X159272Y156651D01*
X158986Y156986D01*
X158651Y157272D01*
X158275Y157503D01*
X157868Y157671D01*
X157439Y157774D01*
X157000Y157809D01*
X156561Y157774D01*
X156132Y157671D01*
X155725Y157503D01*
X155349Y157272D01*
X155014Y156986D01*
X154728Y156651D01*
X154635Y156500D01*
X153059D01*
X153000Y156505D01*
X152765Y156486D01*
X152535Y156431D01*
X152317Y156341D01*
X152116Y156217D01*
X152115Y156217D01*
X151936Y156064D01*
X151898Y156019D01*
X143000Y147121D01*
Y163000D01*
G37*
G36*
X197500Y40000D02*X187250D01*
Y47912D01*
X187257Y48000D01*
X187229Y48353D01*
X187146Y48697D01*
X187107Y48793D01*
X187011Y49025D01*
X186896Y49212D01*
X186826Y49327D01*
X186826Y49327D01*
X186596Y49596D01*
X186529Y49653D01*
X181091Y55091D01*
X180827Y55326D01*
X180525Y55511D01*
X180197Y55646D01*
X179853Y55729D01*
X179500Y55757D01*
X179147Y55729D01*
X178803Y55646D01*
X178475Y55511D01*
X178173Y55326D01*
X177904Y55096D01*
X177674Y54827D01*
X177500Y54542D01*
Y103721D01*
X177728Y103349D01*
X178014Y103014D01*
X178349Y102728D01*
X178725Y102497D01*
X179132Y102329D01*
X179561Y102226D01*
X180000Y102191D01*
X180439Y102226D01*
X180868Y102329D01*
X181275Y102497D01*
X181651Y102728D01*
X181986Y103014D01*
X182272Y103349D01*
X182503Y103725D01*
X182671Y104132D01*
X182774Y104561D01*
X182800Y105000D01*
X182774Y105439D01*
X182671Y105868D01*
X182503Y106275D01*
X182272Y106651D01*
X181986Y106986D01*
X181651Y107272D01*
X181275Y107503D01*
X180868Y107671D01*
X180439Y107774D01*
X180000Y107809D01*
X179561Y107774D01*
X179389Y107733D01*
X177500Y109621D01*
Y112500D01*
X197500D01*
Y89574D01*
X194824D01*
X194471Y89553D01*
X194127Y89470D01*
X193799Y89335D01*
X193497Y89150D01*
X193228Y88920D01*
X192998Y88651D01*
X192813Y88349D01*
X192678Y88021D01*
X192595Y87677D01*
X192567Y87324D01*
X192595Y86971D01*
X192678Y86627D01*
X192813Y86299D01*
X192998Y85997D01*
X193228Y85728D01*
X193497Y85498D01*
X193799Y85313D01*
X194127Y85178D01*
X194471Y85095D01*
X194824Y85074D01*
X197500D01*
Y40000D01*
G37*
G36*
X295000Y130000D02*X282000D01*
Y133507D01*
X284735Y133514D01*
X284965Y133569D01*
X285183Y133659D01*
X285384Y133783D01*
X285564Y133936D01*
X285717Y134116D01*
X285841Y134317D01*
X285931Y134535D01*
X285986Y134765D01*
X286000Y135000D01*
X285986Y140235D01*
X285931Y140465D01*
X285841Y140683D01*
X285717Y140884D01*
X285564Y141064D01*
X285384Y141217D01*
X285183Y141341D01*
X284965Y141431D01*
X284735Y141486D01*
X284500Y141500D01*
X282000Y141493D01*
Y142750D01*
X291568D01*
X295000Y139318D01*
Y130000D01*
G37*
G36*
X282000D02*X197500D01*
Y166818D01*
X198182Y167500D01*
X269318D01*
X270250Y166568D01*
Y152588D01*
X270243Y152500D01*
X270271Y152147D01*
X270354Y151803D01*
X270489Y151475D01*
X270674Y151173D01*
X270674Y151173D01*
X270904Y150904D01*
X270971Y150847D01*
X278347Y143471D01*
X278404Y143404D01*
X278673Y143174D01*
X278673Y143174D01*
X278861Y143059D01*
X278975Y142989D01*
X279303Y142854D01*
X279647Y142771D01*
X279647D01*
X280000Y142743D01*
X280088Y142750D01*
X282000D01*
Y141493D01*
X279265Y141486D01*
X279035Y141431D01*
X278817Y141341D01*
X278616Y141217D01*
X278436Y141064D01*
X278283Y140884D01*
X278159Y140683D01*
X278069Y140465D01*
X278014Y140235D01*
X278000Y140000D01*
X278014Y134765D01*
X278069Y134535D01*
X278159Y134317D01*
X278283Y134116D01*
X278436Y133936D01*
X278616Y133783D01*
X278817Y133659D01*
X279035Y133569D01*
X279265Y133514D01*
X279500Y133500D01*
X282000Y133507D01*
Y130000D01*
G37*
G36*
X295000D02*Y40182D01*
X294818Y40000D01*
X274490D01*
Y50981D01*
X274500Y50980D01*
X275520Y51060D01*
X276515Y51299D01*
X277460Y51691D01*
X278332Y52225D01*
X279110Y52890D01*
X279775Y53668D01*
X280309Y54540D01*
X280701Y55485D01*
X280940Y56480D01*
X281000Y57500D01*
X280940Y58520D01*
X280701Y59515D01*
X280309Y60460D01*
X279775Y61332D01*
X279110Y62110D01*
X278332Y62775D01*
X277460Y63309D01*
X276515Y63701D01*
X275520Y63940D01*
X274500Y64020D01*
X274490Y64019D01*
Y90981D01*
X274500Y90980D01*
X275520Y91060D01*
X276515Y91299D01*
X277460Y91691D01*
X278332Y92225D01*
X279110Y92890D01*
X279775Y93668D01*
X280309Y94540D01*
X280701Y95485D01*
X280940Y96480D01*
X281000Y97500D01*
X280940Y98520D01*
X280701Y99515D01*
X280309Y100460D01*
X279775Y101332D01*
X279110Y102110D01*
X278332Y102775D01*
X277460Y103309D01*
X276515Y103701D01*
X275520Y103940D01*
X274500Y104020D01*
X274490Y104019D01*
Y130000D01*
X295000D01*
G37*
G36*
X274490Y40000D02*X254500D01*
Y73007D01*
X257735Y73014D01*
X257965Y73069D01*
X258183Y73159D01*
X258384Y73283D01*
X258564Y73436D01*
X258717Y73616D01*
X258841Y73817D01*
X258931Y74035D01*
X258986Y74265D01*
X259000Y74500D01*
X258986Y80735D01*
X258931Y80965D01*
X258841Y81183D01*
X258717Y81384D01*
X258564Y81564D01*
X258384Y81717D01*
X258183Y81841D01*
X257965Y81931D01*
X257735Y81986D01*
X257500Y82000D01*
X254500Y81993D01*
Y82986D01*
X255206Y83042D01*
X255895Y83207D01*
X256549Y83478D01*
X257153Y83848D01*
X257692Y84308D01*
X258152Y84847D01*
X258522Y85451D01*
X258793Y86105D01*
X258958Y86794D01*
X259000Y87500D01*
X258958Y88206D01*
X258793Y88895D01*
X258522Y89549D01*
X258152Y90153D01*
X257692Y90692D01*
X257153Y91152D01*
X256549Y91522D01*
X255895Y91793D01*
X255206Y91958D01*
X254500Y92014D01*
Y130000D01*
X274490D01*
Y104019D01*
X273480Y103940D01*
X272485Y103701D01*
X271540Y103309D01*
X270668Y102775D01*
X269890Y102110D01*
X269225Y101332D01*
X268691Y100460D01*
X268299Y99515D01*
X268060Y98520D01*
X267980Y97500D01*
X268060Y96480D01*
X268299Y95485D01*
X268691Y94540D01*
X269225Y93668D01*
X269890Y92890D01*
X270668Y92225D01*
X271540Y91691D01*
X272485Y91299D01*
X273480Y91060D01*
X274490Y90981D01*
Y64019D01*
X273480Y63940D01*
X272485Y63701D01*
X271540Y63309D01*
X270668Y62775D01*
X269890Y62110D01*
X269225Y61332D01*
X268691Y60460D01*
X268299Y59515D01*
X268060Y58520D01*
X267980Y57500D01*
X268060Y56480D01*
X268299Y55485D01*
X268691Y54540D01*
X269225Y53668D01*
X269890Y52890D01*
X270668Y52225D01*
X271540Y51691D01*
X272485Y51299D01*
X273480Y51060D01*
X274490Y50981D01*
Y40000D01*
G37*
G36*
X254500D02*X218494D01*
Y45312D01*
X225529Y52347D01*
X225596Y52404D01*
X225826Y52673D01*
X225826Y52673D01*
X226011Y52975D01*
X226146Y53303D01*
X226229Y53647D01*
X226257Y54000D01*
X226250Y54088D01*
Y93068D01*
X234249Y101067D01*
X234372Y101037D01*
X235000Y100988D01*
X235628Y101037D01*
X236240Y101184D01*
X236822Y101425D01*
X237358Y101754D01*
X237837Y102163D01*
X238246Y102642D01*
X238575Y103178D01*
X238816Y103760D01*
X238963Y104372D01*
X239000Y105000D01*
X238963Y105628D01*
X238816Y106240D01*
X238575Y106822D01*
X238246Y107358D01*
X237837Y107837D01*
X237358Y108246D01*
X236822Y108575D01*
X236240Y108816D01*
X235628Y108963D01*
X235000Y109012D01*
X234372Y108963D01*
X233760Y108816D01*
X233178Y108575D01*
X232642Y108246D01*
X232163Y107837D01*
X231754Y107358D01*
X231425Y106822D01*
X231184Y106240D01*
X231037Y105628D01*
X230988Y105000D01*
X231037Y104372D01*
X231067Y104249D01*
X222471Y95653D01*
X222404Y95596D01*
X222174Y95327D01*
X221989Y95025D01*
X221854Y94697D01*
X221771Y94353D01*
X221771Y94353D01*
X221743Y94000D01*
X221750Y93912D01*
Y54932D01*
X218494Y51676D01*
Y116000D01*
X222441D01*
X222500Y115995D01*
X222735Y116014D01*
X222735Y116014D01*
X222965Y116069D01*
X223183Y116159D01*
X223384Y116283D01*
X223564Y116436D01*
X223602Y116481D01*
X233121Y126000D01*
X234379D01*
X243473Y116905D01*
X243317Y116841D01*
X243116Y116717D01*
X242936Y116564D01*
X242783Y116384D01*
X242659Y116183D01*
X242569Y115965D01*
X242514Y115735D01*
X242500Y115500D01*
X242514Y110265D01*
X242569Y110035D01*
X242659Y109817D01*
X242783Y109616D01*
X242936Y109436D01*
X243116Y109283D01*
X243317Y109159D01*
X243535Y109069D01*
X243765Y109014D01*
X244000Y109000D01*
X249235Y109014D01*
X249465Y109069D01*
X249683Y109159D01*
X249884Y109283D01*
X250064Y109436D01*
X250217Y109616D01*
X250341Y109817D01*
X250431Y110035D01*
X250486Y110265D01*
X250500Y110500D01*
X250486Y115735D01*
X250431Y115965D01*
X250341Y116183D01*
X250217Y116384D01*
X250064Y116564D01*
X249884Y116717D01*
X249683Y116841D01*
X249465Y116931D01*
X249235Y116986D01*
X249000Y117000D01*
X247622Y116996D01*
X247564Y117064D01*
X247519Y117102D01*
X236102Y128519D01*
X236064Y128564D01*
X235884Y128717D01*
X235683Y128841D01*
X235465Y128931D01*
X235235Y128986D01*
X235235Y128986D01*
X235000Y129005D01*
X234941Y129000D01*
X232559D01*
X232500Y129005D01*
X232265Y128986D01*
X232035Y128931D01*
X231817Y128841D01*
X231616Y128717D01*
X231615Y128717D01*
X231436Y128564D01*
X231398Y128519D01*
X221879Y119000D01*
X218494D01*
Y130000D01*
X254500D01*
Y92014D01*
X253794Y91958D01*
X253105Y91793D01*
X252451Y91522D01*
X251847Y91152D01*
X251308Y90692D01*
X250848Y90153D01*
X250478Y89549D01*
X250207Y88895D01*
X250042Y88206D01*
X249986Y87500D01*
X250042Y86794D01*
X250207Y86105D01*
X250478Y85451D01*
X250848Y84847D01*
X251308Y84308D01*
X251847Y83848D01*
X252451Y83478D01*
X253105Y83207D01*
X253794Y83042D01*
X254500Y82986D01*
Y81993D01*
X251265Y81986D01*
X251035Y81931D01*
X250817Y81841D01*
X250616Y81717D01*
X250436Y81564D01*
X250283Y81384D01*
X250159Y81183D01*
X250069Y80965D01*
X250014Y80735D01*
X250000Y80500D01*
X250014Y74265D01*
X250069Y74035D01*
X250159Y73817D01*
X250283Y73616D01*
X250436Y73436D01*
X250616Y73283D01*
X250817Y73159D01*
X251035Y73069D01*
X251265Y73014D01*
X251500Y73000D01*
X254500Y73007D01*
Y40000D01*
G37*
G36*
X218494Y119000D02*X197500D01*
Y123500D01*
X200635D01*
X200728Y123349D01*
X201014Y123014D01*
X201349Y122728D01*
X201725Y122497D01*
X202132Y122329D01*
X202561Y122226D01*
X203000Y122191D01*
X203439Y122226D01*
X203868Y122329D01*
X204275Y122497D01*
X204651Y122728D01*
X204986Y123014D01*
X205272Y123349D01*
X205503Y123725D01*
X205671Y124132D01*
X205774Y124561D01*
X205800Y125000D01*
X205774Y125439D01*
X205671Y125868D01*
X205503Y126275D01*
X205272Y126651D01*
X204986Y126986D01*
X204651Y127272D01*
X204275Y127503D01*
X203868Y127671D01*
X203439Y127774D01*
X203000Y127809D01*
X202561Y127774D01*
X202132Y127671D01*
X201725Y127503D01*
X201349Y127272D01*
X201014Y126986D01*
X200728Y126651D01*
X200635Y126500D01*
X197500D01*
Y130000D01*
X218494D01*
Y119000D01*
G37*
G36*
Y40000D02*X197500D01*
Y85074D01*
X199500D01*
X199853Y85095D01*
X200197Y85178D01*
X200525Y85313D01*
X200827Y85498D01*
X201096Y85728D01*
X201326Y85997D01*
X201511Y86299D01*
X201646Y86627D01*
X201729Y86971D01*
X201757Y87324D01*
X201729Y87677D01*
X201646Y88021D01*
X201511Y88349D01*
X201326Y88651D01*
X201096Y88920D01*
X200827Y89150D01*
X200525Y89335D01*
X200197Y89470D01*
X199853Y89553D01*
X199500Y89574D01*
X197500D01*
Y116000D01*
X218494D01*
Y51676D01*
X214068Y47250D01*
X205312D01*
X205246Y47358D01*
X204837Y47837D01*
X204358Y48246D01*
X203822Y48575D01*
X203240Y48816D01*
X202628Y48963D01*
X202000Y49012D01*
X201372Y48963D01*
X200760Y48816D01*
X200178Y48575D01*
X199642Y48246D01*
X199163Y47837D01*
X198754Y47358D01*
X198425Y46822D01*
X198184Y46240D01*
X198037Y45628D01*
X197988Y45000D01*
X198037Y44372D01*
X198184Y43760D01*
X198425Y43178D01*
X198754Y42642D01*
X199163Y42163D01*
X199642Y41754D01*
X200178Y41425D01*
X200760Y41184D01*
X201372Y41037D01*
X202000Y40988D01*
X202628Y41037D01*
X203240Y41184D01*
X203822Y41425D01*
X204358Y41754D01*
X204837Y42163D01*
X205246Y42642D01*
X205312Y42750D01*
X214912D01*
X215000Y42743D01*
X215353Y42771D01*
X215353Y42771D01*
X215697Y42854D01*
X216025Y42989D01*
X216327Y43174D01*
X216596Y43404D01*
X216653Y43471D01*
X218494Y45312D01*
Y40000D01*
G37*
G36*
X184000Y123881D02*Y114000D01*
X173121D01*
X172602Y114519D01*
X172564Y114564D01*
X172384Y114717D01*
X172183Y114841D01*
X171965Y114931D01*
X171735Y114986D01*
X171500Y115005D01*
X171441Y115000D01*
X138121D01*
X136500Y116621D01*
Y119379D01*
X141159Y124038D01*
X141225Y123997D01*
X141632Y123829D01*
X142061Y123726D01*
X142500Y123691D01*
X142939Y123726D01*
X143368Y123829D01*
X143775Y123997D01*
X144151Y124228D01*
X144486Y124514D01*
X144772Y124849D01*
X145003Y125225D01*
X145171Y125632D01*
X145274Y126061D01*
X145300Y126500D01*
X145274Y126939D01*
X145171Y127368D01*
X145003Y127775D01*
X144772Y128151D01*
X144486Y128486D01*
X144151Y128772D01*
X143775Y129003D01*
X143368Y129171D01*
X142939Y129274D01*
X142500Y129309D01*
X142061Y129274D01*
X141632Y129171D01*
X141225Y129003D01*
X140849Y128772D01*
X140514Y128486D01*
X140228Y128151D01*
X139997Y127775D01*
X139829Y127368D01*
X139726Y126939D01*
X139718Y126839D01*
X136000Y123121D01*
Y132500D01*
X139941D01*
X140000Y132495D01*
X140235Y132514D01*
X140235Y132514D01*
X140465Y132569D01*
X140683Y132659D01*
X140884Y132783D01*
X141064Y132936D01*
X141102Y132981D01*
X143121Y135000D01*
X155395D01*
X155236Y134864D01*
X155198Y134819D01*
X151481Y131102D01*
X151436Y131064D01*
X151283Y130884D01*
X151159Y130683D01*
X151069Y130465D01*
X151014Y130235D01*
X151014Y130235D01*
X150995Y130000D01*
X151000Y129941D01*
Y128865D01*
X150849Y128772D01*
X150514Y128486D01*
X150228Y128151D01*
X149997Y127775D01*
X149829Y127368D01*
X149726Y126939D01*
X149691Y126500D01*
X149726Y126061D01*
X149829Y125632D01*
X149997Y125225D01*
X150228Y124849D01*
X150514Y124514D01*
X150849Y124228D01*
X151225Y123997D01*
X151495Y123885D01*
X151616Y123783D01*
X151817Y123659D01*
X152035Y123569D01*
X152265Y123514D01*
X152500Y123495D01*
X152735Y123514D01*
X152965Y123569D01*
X153183Y123659D01*
X153384Y123783D01*
X153505Y123885D01*
X153775Y123997D01*
X154151Y124228D01*
X154486Y124514D01*
X154772Y124849D01*
X155003Y125225D01*
X155171Y125632D01*
X155274Y126061D01*
X155300Y126500D01*
X155274Y126939D01*
X155171Y127368D01*
X155003Y127775D01*
X154772Y128151D01*
X154486Y128486D01*
X154151Y128772D01*
X154000Y128865D01*
Y129379D01*
X156921Y132300D01*
X175579D01*
X183898Y123981D01*
X183936Y123936D01*
X184000Y123881D01*
G37*
G54D38*X126086Y47396D02*X106504D01*
X105000Y48900D01*
Y56900D01*
X107500Y68900D02*X106800Y68200D01*
X105000Y73800D02*X103100Y71900D01*
Y68100D01*
X107500Y133900D02*Y68900D01*
X105000Y135000D02*Y73800D01*
X102500Y137500D02*Y75000D01*
X110000Y132000D02*Y109000D01*
X112000Y107000D01*
G54D39*X147000Y84900D02*Y85900D01*
X139748Y77648D02*X147000Y84900D01*
X138000Y87900D02*X132000Y81900D01*
X138685Y77648D02*X139748D01*
X132000Y81900D02*Y72900D01*
X137000Y67900D01*
X149000D02*X137000D01*
X149000Y66900D02*Y78900D01*
X152000Y81900D01*
Y76900D02*X155000Y79900D01*
Y94900D01*
X151300Y89600D02*X152000Y88900D01*
Y81900D01*
X149000Y67900D02*X152000Y70900D01*
Y76900D01*
X155000Y94900D02*X160000Y99900D01*
G54D38*X168000Y104000D02*Y84400D01*
X167500Y83900D01*
X112000Y107000D02*X165000D01*
X168000Y104000D01*
X152500Y125000D02*Y130000D01*
X156300Y133800D01*
X135000Y120000D02*Y116000D01*
X137500Y113500D01*
X171500D01*
X142500Y126500D02*X141500D01*
X135000Y120000D01*
G54D39*X88000Y87710D02*X65190D01*
X62700Y93300D02*Y90200D01*
X65190Y87710D02*X62700Y90200D01*
X58000Y43900D02*X53000D01*
X51000Y45900D01*
X45000Y33900D02*X42000Y36900D01*
Y55900D01*
G54D38*X58000Y52900D02*X63000Y47900D01*
Y38900D01*
G54D39*X51000Y45900D02*Y58500D01*
X37500Y57500D02*Y33400D01*
G54D38*X78000Y53900D02*Y63900D01*
X80000Y65900D01*
X83000Y38900D02*Y60900D01*
X84000Y61900D01*
X100000D01*
X105000Y56900D02*X100000Y61900D01*
X76000Y71900D02*X86000D01*
X80100Y66000D02*X79800Y65700D01*
X99000Y66000D02*X101000D01*
X103100Y68100D01*
X80100Y66000D02*X99000D01*
X78000Y68900D02*X96400D01*
X102500Y75000D02*X96400Y68900D01*
X68000Y43900D02*Y45900D01*
X73000Y50900D01*
X78000Y43900D02*X80000D01*
G54D39*X88000Y39900D02*X91000D01*
X92000Y38900D01*
X103000D01*
Y33900D02*X45000D01*
G54D38*X64000Y37900D02*X82000D01*
X83000Y38900D01*
G54D39*X101000Y28900D02*X42000D01*
G54D38*X63000Y38900D02*X64000Y37900D01*
G54D39*X37500Y33400D02*X42000Y28900D01*
G54D38*X68000Y53900D02*Y63900D01*
X76000Y71900D01*
X73000Y50900D02*Y63900D01*
X78000Y68900D01*
X58000Y53900D02*Y52900D01*
G54D39*X52000Y74500D02*Y65900D01*
X55500Y74500D02*X62500Y67500D01*
Y62500D01*
X52000Y74500D02*Y72000D01*
Y74500D02*X55500D01*
X42000Y55900D02*X52000Y65900D01*
X62500Y62500D02*X60000Y60000D01*
X51000Y58500D02*X52500Y60000D01*
X60000D01*
X52000Y72000D02*X37500Y57500D01*
G54D38*X137500Y136900D02*X140500Y139900D01*
Y163900D01*
X142000Y165400D02*X140500Y163900D01*
Y167400D02*X137000Y163900D01*
Y143400D01*
X133000Y163900D02*Y145900D01*
X140500Y167400D02*X148500D01*
X147000Y170400D02*X139500D01*
X133000Y163900D01*
X148500Y167400D02*X150500Y169400D01*
X154300D01*
X156300Y167400D01*
X160000Y166400D02*Y169900D01*
X158000Y171900D01*
X148500D01*
X147000Y170400D01*
G54D39*X151500Y143500D02*X151000Y144000D01*
G54D38*X137000Y143400D02*X133750Y140150D01*
X133000Y145900D02*X130500Y143400D01*
G54D39*X164500Y143500D02*X168000Y140000D01*
X164500Y143500D02*X151500D01*
G54D38*X137500Y136900D02*X110500D01*
X107500Y133900D02*X110500Y136900D01*
X133750Y140150D02*X110150D01*
X105000Y135000D01*
X130500Y143400D02*X108400D01*
X102500Y137500D01*
X144000Y138000D02*X140000Y134000D01*
X112000D01*
X156300Y133800D02*X176200D01*
X112000Y134000D02*X110000Y132000D01*
X142000Y165400D02*X152000D01*
X169000Y162900D02*X166500Y165400D01*
X161000D01*
X160000Y166400D01*
G54D39*X195000Y167500D02*Y160000D01*
X155100Y148700D02*X169700D01*
G54D38*X157000Y155000D02*X153000D01*
X144000Y146000D01*
Y138000D01*
G54D39*X168000Y140000D02*X174000D01*
X169700Y148700D02*X172700D01*
X180000Y156000D02*X172700Y148700D01*
X180000Y156000D02*X191000D01*
X195000Y160000D02*X191000Y156000D01*
X272500Y167500D02*X267500Y172500D01*
X200000D01*
X195000Y167500D01*
X272500Y152500D02*Y167500D01*
X280000Y145000D02*X272500Y152500D01*
X292500Y145000D02*X280000D01*
X297500Y140000D02*X292500Y145000D01*
X103000Y33900D02*X115000Y21900D01*
Y14900D01*
X111000Y18900D02*X101000Y28900D01*
X103000Y38900D02*X129000Y12900D01*
X111000Y11900D02*Y18900D01*
X115000Y14900D02*X121000Y8900D01*
X154000D01*
X139485Y14375D02*Y13975D01*
X129000Y12900D02*X138010D01*
X139485Y14375D01*
X154000Y8900D02*X155000Y9900D01*
X185000Y10900D02*X179000Y4900D01*
X118000D01*
X111000Y11900D01*
X155000Y9900D02*Y12900D01*
X151000Y16900D01*
Y24900D01*
X156000Y29900D01*
X159000D01*
X163000Y33900D01*
X187500Y27500D02*X185000Y25000D01*
Y10900D02*Y48000D01*
X224000Y94000D02*Y54000D01*
X235000Y105000D02*X224000Y94000D01*
X219000Y77000D02*Y103500D01*
X201000Y79000D02*X206500Y84500D01*
Y113000D02*Y84500D01*
G54D38*X176200Y133800D02*X185000Y125000D01*
X203000D02*X185000D01*
X222500Y117500D02*X187500D01*
X171500Y113500D02*X180000Y105000D01*
G54D39*X201000Y64000D02*Y79000D01*
X237000Y117500D02*X233000D01*
X219000Y103500D02*X233000Y117500D01*
G54D38*X246500Y113000D02*Y116000D01*
X235000Y127500D01*
X232500D01*
X222500Y117500D01*
G54D39*X297500Y39500D02*X293000Y35000D01*
X280000D01*
X272500Y27500D01*
X297500Y45500D02*Y39500D01*
Y45000D02*Y140000D01*
X272500Y27500D02*X187500D01*
X224000Y54000D02*X215000Y45000D01*
X202000D02*X215000D01*
X195000Y53000D02*X219000Y77000D01*
X195000Y52500D02*Y53000D01*
X189500Y52500D02*X201000Y64000D01*
X183500Y59000D02*X190000Y52500D01*
X183500Y76000D02*Y59000D01*
X205500Y52500D02*X180500D01*
X194824Y87324D02*X183500Y76000D01*
X199500Y87324D02*X194824D01*
X180500Y52500D02*X179500Y53500D01*
X185000Y48000D02*X179500Y53500D01*
G54D37*G36*
X244000Y115500D02*Y110500D01*
X249000D01*
Y115500D01*
X244000D01*
G37*
G54D40*X206500Y113000D03*
G54D37*G36*
X251500Y80500D02*Y74500D01*
X257500D01*
Y80500D01*
X251500D01*
G37*
G54D41*X254500Y87500D03*
G54D42*X274500Y97500D03*
Y57500D03*
G54D37*G36*
X279500Y140000D02*Y135000D01*
X284500D01*
Y140000D01*
X279500D01*
G37*
G54D40*X242000Y137500D03*
G54D37*G36*
X146250Y35650D02*Y30150D01*
X151750D01*
Y35650D01*
X146250D01*
G37*
G54D41*X62700Y93300D03*
Y103100D03*
X70500D03*
Y93300D03*
G54D43*X52000Y74500D03*
Y121900D03*
G54D44*X129000Y32900D03*
G54D37*G36*
X75000Y56900D02*Y50900D01*
X81000D01*
Y56900D01*
X75000D01*
G37*
G54D41*X78000Y43900D03*
X68000D03*
X58000D03*
X68000Y53900D03*
X58000D03*
X138685Y77648D03*
X147000Y84900D03*
X149000Y67900D03*
G54D45*X145000Y95000D03*
G54D41*X163000Y33900D03*
G54D46*X15748Y15748D03*
X287402D03*
G54D41*X88000Y39900D03*
X139485Y14375D03*
G54D45*X126086Y47396D03*
G54D41*X202000Y45000D03*
X179500Y53500D03*
X205500Y52500D03*
X88000Y87710D03*
G54D45*X89500Y68900D03*
X93500Y66000D03*
X106800Y68200D03*
X86000Y71900D03*
X156300Y167400D03*
G54D46*X15748Y161417D03*
G54D45*X142500Y126500D03*
X151000Y144000D03*
G54D41*X147500Y118000D03*
G54D45*X152000Y165400D03*
X169000Y162900D03*
G54D46*X287402Y161417D03*
G54D45*X157000Y155000D03*
G54D41*X180000Y156000D03*
X118000Y98500D03*
X199500Y87324D03*
G54D45*X157500Y95000D03*
X167500Y83900D03*
X180000Y105000D03*
G54D41*X155100Y148700D03*
X174000Y140000D03*
G54D45*X152500Y126500D03*
X203000Y125000D03*
G54D41*X237000Y117500D03*
G54D45*X187500D03*
G54D41*X157500Y118000D03*
X235000Y105000D03*
G54D47*G54D48*G54D47*G54D49*G54D47*G54D48*G54D47*G54D48*G54D49*G54D48*G54D47*G54D48*G54D49*G54D48*G54D47*G54D48*G54D47*G54D48*G54D47*G54D48*G54D47*G54D48*G54D47*G54D50*G54D48*G54D51*G54D52*G54D53*G54D51*G54D54*M02*
